<?xml version="1.0" standalone="no"?>
<!DOCTYPE svg PUBLIC "-//W3C//DTD SVG 20010904//EN"
 "http://www.w3.org/TR/2001/REC-SVG-20010904/DTD/svg10.dtd">
<svg version="1.0" xmlns="http://www.w3.org/2000/svg"
 width="474.000000pt" height="360.000000pt" viewBox="0 0 474.000000 360.000000"
 preserveAspectRatio="xMidYMid meet">

<g transform="translate(0.000000,360.000000) scale(0.100000,-0.100000)"
fill="#000000" stroke="none">
<path d="M3775 3581 c-10 -33 -72 -79 -127 -96 -36 -10 -94 -15 -189 -15 -167
0 -228 -17 -282 -81 -19 -21 -37 -39 -40 -39 -4 0 -7 14 -7 31 l0 31 -35 -44
c-19 -24 -46 -64 -60 -90 -26 -49 -45 -158 -28 -158 6 0 13 18 16 40 3 22 20
70 37 107 30 62 33 66 40 43 5 -14 8 -38 9 -53 1 -42 22 -28 38 25 17 59 76
112 141 127 26 6 108 16 183 21 172 13 232 30 282 82 22 23 37 49 37 63 0 30
-6 32 -15 6z"/>
<path d="M3837 3557 c-39 -36 -57 -87 -57 -161 0 -64 -28 -109 -94 -146 l-51
-30 34 0 c43 0 94 32 120 74 16 24 21 50 21 97 0 71 26 136 66 168 27 22 30
31 10 31 -8 0 -30 -15 -49 -33z"/>
<path d="M3400 3362 c-42 -21 -80 -75 -80 -113 0 -32 40 -83 82 -105 34 -18
111 -20 151 -5 15 6 27 12 27 13 0 2 -25 1 -56 0 -66 -5 -105 10 -139 50 -54
64 -11 144 90 169 l30 7 -35 1 c-19 1 -51 -7 -70 -17z"/>
<path d="M3424 3306 c-41 -41 -42 -55 -9 -94 28 -34 92 -51 122 -33 16 9 16
10 1 11 -33 0 -67 23 -79 51 -9 24 -9 33 5 54 10 15 27 30 39 35 19 8 18 9
-11 9 -26 1 -42 -7 -68 -33z"/>
<path d="M3150 3159 c-107 -58 -159 -99 -243 -190 -52 -56 -81 -79 -98 -79
-22 -1 -22 -2 -7 -14 16 -12 14 -18 -22 -87 -56 -108 -81 -203 -87 -341 -5
-100 -8 -118 -22 -118 -24 0 -123 48 -150 73 l-24 22 16 -30 c29 -57 151 -105
271 -105 84 -1 205 -22 259 -44 102 -44 168 -145 175 -271 3 -44 10 -83 16
-87 6 -4 25 -8 41 -8 17 0 45 -9 64 -21 41 -25 48 -20 21 14 -13 16 -36 29
-63 34 l-42 9 -3 63 c-4 94 -35 165 -101 232 -79 80 -136 100 -308 107 l-133
5 0 32 c0 101 48 282 107 400 61 124 47 117 201 105 222 -17 436 -67 563 -131
63 -31 194 -132 227 -174 16 -20 22 -42 22 -77 0 -33 10 -73 31 -121 17 -40
33 -97 36 -127 4 -47 2 -58 -16 -77 -29 -30 -55 -29 -80 3 -24 31 -27 78 -6
114 20 36 20 57 -1 39 -25 -20 -44 -65 -44 -102 0 -41 36 -97 73 -115 24 -12
32 -11 51 2 22 14 24 14 30 -7 9 -35 7 -67 -4 -67 -6 0 -22 12 -37 26 -14 14
-27 23 -29 21 -10 -10 30 -111 57 -142 l30 -34 -15 -90 c-24 -135 -70 -267
-126 -361 -28 -46 -48 -85 -46 -87 6 -7 91 116 120 174 34 69 72 202 81 285 7
67 7 67 35 61 69 -13 152 50 165 126 10 62 -16 138 -64 185 l-40 39 34 48
c151 204 129 465 -60 723 -22 30 -40 54 -42 53 -1 -2 25 -56 57 -122 69 -139
90 -208 97 -325 9 -145 -37 -287 -123 -378 -42 -44 -61 -79 -29 -52 13 10 17
7 30 -23 8 -20 15 -48 15 -62 0 -30 -32 -65 -59 -65 -16 0 -21 10 -26 53 -4
30 -2 64 4 80 6 16 11 36 11 46 0 10 19 38 43 62 79 83 117 241 97 402 -22
183 -81 306 -170 356 -45 25 -49 22 -19 -20 34 -48 88 -173 95 -220 l6 -44
-28 35 c-71 88 -138 149 -197 179 -67 34 -165 57 -180 42 -5 -5 16 -27 50 -54
64 -49 158 -145 150 -153 -3 -3 -31 12 -64 34 -83 57 -116 72 -191 88 -71 15
-200 17 -242 4 -31 -9 -28 -10 124 -50 206 -52 340 -122 435 -225 57 -63 84
-114 107 -204 16 -65 15 -102 -6 -156 l-11 -30 -30 75 c-67 171 -69 227 -4
103 30 -57 34 -62 29 -33 -9 52 -59 155 -99 205 -137 167 -440 279 -815 303
l-115 7 84 88 c47 48 119 110 160 138 88 60 99 69 86 69 -6 0 -44 -19 -85 -41z
m935 -1066 c14 -45 16 -62 6 -94 -16 -53 -54 -81 -105 -77 -38 3 -41 5 -44 34
-3 27 1 33 28 44 17 7 37 22 45 34 22 31 19 98 -6 131 -18 22 -20 29 -8 36 21
13 63 -41 84 -108z m-166 -123 c3 -25 3 -25 -18 -6 -26 23 -27 39 -3 34 9 -2
19 -14 21 -28z"/>
<path d="M3669 3130 c-46 -49 -67 -62 -125 -81 -63 -20 -86 -22 -261 -21 -119
1 -194 -2 -198 -8 -4 -6 14 -10 47 -10 29 0 94 -11 143 -25 50 -14 101 -25
115 -25 23 1 24 2 8 14 -10 7 -18 16 -18 18 0 3 38 7 84 10 99 5 179 39 225
96 30 35 57 93 43 91 -4 -1 -32 -27 -63 -59z"/>
<path d="M2590 3061 c-73 -77 -119 -146 -184 -278 -36 -72 -70 -134 -75 -137
-32 -20 -34 134 -2 234 26 83 4 56 -40 -49 -46 -109 -64 -227 -50 -316 22
-135 83 -228 213 -328 109 -83 338 -200 338 -172 0 14 -44 92 -64 113 -27 30
-101 68 -149 77 -52 10 -55 22 -8 35 22 6 43 15 46 20 3 5 -17 21 -45 35 -44
22 -55 35 -76 80 -14 30 -24 67 -22 82 l3 28 38 -37 c21 -21 42 -38 47 -38 5
0 10 28 12 63 3 69 0 71 49 -38 l23 -50 7 145 c10 220 52 358 153 500 25 36
41 67 36 68 -13 5 -96 -56 -136 -100 -80 -85 -132 -189 -164 -323 -12 -49 -24
-97 -27 -105 -9 -26 -22 19 -22 80 -1 94 25 188 89 319 33 68 58 126 55 129
-3 3 -23 -14 -45 -37z"/>
<path d="M2227 2826 c-71 -113 -95 -273 -58 -392 38 -125 106 -219 220 -305
108 -82 252 -144 403 -174 24 -4 27 -11 33 -59 4 -33 0 -113 -11 -205 l-18
-151 -35 -10 c-20 -5 -118 -28 -218 -50 l-182 -42 -66 57 c-36 32 -89 84 -117
117 -28 32 -53 57 -55 54 -14 -14 39 -85 114 -153 73 -66 83 -78 67 -85 -11
-5 -95 -26 -187 -47 l-169 -38 -51 73 c-28 41 -53 72 -55 69 -7 -6 17 -63 46
-108 13 -22 22 -40 20 -42 -7 -6 -492 -115 -496 -111 -2 2 1 13 7 24 30 57 2
49 -35 -9 -13 -21 -32 -39 -41 -39 -9 0 -40 23 -70 51 -29 27 -72 59 -96 69
-52 23 -209 61 -201 49 3 -5 49 -23 103 -39 106 -33 186 -79 197 -112 7 -24
-5 -34 -55 -43 -20 -3 -112 -24 -205 -46 -98 -23 -193 -39 -229 -39 -45 0 -66
-5 -81 -19 -13 -11 -82 -33 -181 -56 -222 -53 -222 -53 -236 -21 -11 23 -9 29
10 50 19 20 21 28 12 45 -7 12 -15 21 -19 21 -16 0 -32 -25 -32 -48 0 -16 -4
-22 -13 -19 -33 13 -50 -30 -33 -80 6 -19 4 -23 -13 -23 -24 0 -37 -18 -23
-32 7 -7 26 -6 61 3 28 7 54 9 58 5 13 -12 -40 -96 -109 -172 -77 -84 -103
-130 -113 -195 -7 -45 7 -123 24 -133 4 -3 6 27 3 67 -5 88 7 118 100 233 l62
77 12 -79 c6 -44 17 -89 24 -100 7 -11 56 -50 109 -87 53 -36 114 -84 135
-106 37 -38 40 -46 45 -113 l6 -72 35 -7 c41 -9 75 -45 89 -97 21 -73 9 -102
-41 -102 -46 0 -68 31 -68 97 l0 57 -43 -42 c-67 -65 -102 -50 -56 24 29 48
18 65 -14 22 -35 -46 -44 -90 -22 -111 23 -23 38 -21 74 9 29 24 31 25 31 5 0
-79 100 -122 155 -66 63 62 2 204 -98 229 -23 5 -28 12 -27 34 6 80 1 92 -57
154 -32 33 -86 80 -120 105 -132 94 -146 136 -117 341 3 23 7 42 8 42 2 0 99
22 217 50 230 53 265 58 307 36 38 -20 125 -114 216 -235 67 -89 86 -107 132
-128 46 -21 66 -24 132 -21 63 2 80 0 95 -15 12 -12 26 -15 45 -11 56 12 131
56 171 99 35 39 41 51 41 90 0 55 16 65 61 39 137 -81 81 -283 -94 -340 -62
-20 -81 -34 -46 -34 82 0 198 71 236 144 55 107 19 223 -85 269 -38 16 -51 18
-77 8 -43 -15 -45 -14 -45 13 0 24 -34 82 -75 126 -57 62 -82 134 -50 146 8 4
15 12 15 20 0 7 10 16 23 19 12 3 108 25 212 49 l190 43 35 -28 c20 -15 58
-37 85 -49 111 -49 105 -43 124 -124 26 -110 117 -184 234 -192 l62 -4 -50 18
c-133 48 -191 108 -219 228 -16 72 -26 84 -69 84 -30 0 -130 45 -148 66 -8 9
13 17 88 34 54 12 132 30 175 41 42 10 85 19 96 19 32 0 157 -144 228 -263 35
-59 64 -114 64 -121 0 -8 -13 -17 -28 -21 -36 -7 -106 -78 -127 -127 -16 -40
-21 -158 -6 -158 5 0 11 22 15 50 13 101 75 189 143 206 50 13 83 -29 36 -47
-62 -23 -110 -95 -120 -180 -7 -62 8 -65 31 -6 20 53 80 125 113 138 27 10 67
-5 61 -23 -2 -6 -22 -17 -43 -25 -52 -18 -81 -47 -101 -100 -23 -59 -12 -64
25 -10 37 54 83 95 118 103 21 6 33 -1 75 -44 57 -58 135 -113 204 -142 26
-12 122 -43 213 -71 91 -28 196 -64 232 -80 74 -32 186 -93 210 -115 23 -20
31 -17 17 7 -7 11 -28 29 -45 40 -18 12 -33 24 -33 29 0 5 35 33 78 63 98 69
208 184 302 317 41 58 79 108 85 112 15 11 195 9 236 -2 94 -26 149 -100 149
-202 0 -67 7 -70 61 -32 107 74 149 224 95 339 -38 83 -131 152 -226 169 -29
5 -25 2 25 -22 68 -33 136 -96 168 -156 32 -63 29 -147 -8 -214 -37 -68 -62
-84 -71 -45 -20 92 -50 131 -134 174 -38 19 -64 24 -162 27 -93 3 -116 7 -111
18 8 22 69 28 162 15 134 -19 221 -68 252 -142 6 -16 15 -29 19 -29 23 0 18
88 -8 137 -16 29 -66 58 -137 78 -45 14 -82 16 -156 12 l-97 -5 29 69 c15 38
38 104 50 147 26 93 60 277 49 265 -5 -4 -23 -57 -41 -118 -31 -108 -77 -234
-119 -333 -20 -45 -27 -53 -72 -69 -65 -23 -85 -45 -28 -31 70 18 67 -9 -4
-41 -74 -32 -66 -57 8 -26 27 12 -17 -54 -125 -190 -80 -101 -156 -174 -252
-242 l-37 -26 -67 31 c-64 29 -153 60 -388 131 -110 33 -204 84 -274 148 -44
39 -45 42 -27 56 16 12 18 21 12 58 -14 86 -71 139 -149 139 -33 0 -37 4 -92
98 -70 117 -101 159 -174 234 -30 32 -53 59 -50 61 4 4 362 87 373 87 4 0 6
-26 6 -58 0 -67 22 -150 48 -182 l19 -23 46 50 c26 27 70 62 98 77 46 25 53
27 66 13 21 -21 12 -31 -71 -84 -83 -53 -122 -87 -142 -125 -21 -41 -18 -75
11 -94 28 -18 59 -15 189 18 74 19 96 19 176 3 16 -3 11 2 -15 15 -52 26 -122
25 -212 -1 -161 -48 -171 24 -18 138 72 53 135 115 135 132 0 19 -32 41 -61
41 -39 0 -75 -19 -145 -77 -54 -43 -58 -45 -71 -28 -21 30 -16 80 12 113 32
38 114 73 189 80 43 4 55 7 41 13 -55 21 -166 1 -225 -41 -35 -25 -48 -21 -33
12 8 18 34 27 174 60 90 20 172 38 181 38 10 0 32 -9 50 -20 52 -32 155 -60
217 -59 l56 1 -65 14 c-65 14 -197 70 -188 79 3 3 99 27 214 54 115 27 222 52
238 56 26 7 27 6 17 -12 -6 -12 -43 -50 -82 -87 -39 -36 -67 -66 -62 -66 23 0
103 62 159 123 34 37 67 67 74 67 8 0 11 9 7 27 -3 14 1 44 9 66 8 22 14 60
14 86 l-1 46 -23 -70 c-41 -124 -34 -118 -153 -147 l-105 -26 6 40 7 40 -43
-35 c-77 -62 -104 -72 -197 -71 -75 1 -83 0 -66 -12 24 -18 12 -29 -37 -38
-35 -6 -40 -3 -109 61 -124 118 -319 365 -319 405 0 12 10 10 48 -9 42 -22 55
-24 127 -18 68 5 90 3 135 -14 58 -22 71 -21 50 4 -33 40 -87 52 -246 54 -17
1 -46 12 -65 26 -91 66 -110 77 -143 85 -19 4 -50 5 -68 1 -32 -7 -31 -7 24
-19 30 -7 63 -21 71 -30 8 -9 37 -60 64 -113 75 -146 152 -256 253 -357 57
-57 87 -94 78 -96 -48 -16 -282 -66 -286 -61 -3 3 0 51 6 108 21 177 13 265
-29 317 -15 18 -19 20 -15 7 5 -16 2 -18 -25 -12 -17 4 -63 20 -101 36 -199
82 -377 231 -444 372 -61 130 -59 259 10 428 13 33 21 59 17 59 -3 0 -18 -20
-34 -44z m-787 -1657 c-19 -34 -4 -63 81 -161 76 -88 80 -95 76 -133 -2 -22
-7 -48 -11 -57 -11 -23 11 -24 36 -1 17 15 21 15 29 3 26 -41 -27 -117 -112
-159 -74 -37 -99 -39 -99 -10 0 20 -3 21 -47 14 -90 -16 -127 -12 -178 20 -44
27 -69 57 -174 200 -17 22 -58 69 -92 104 -45 45 -59 65 -49 71 7 4 51 15 99
25 47 9 141 30 209 46 68 16 129 29 135 29 9 0 12 -24 12 -82 0 -69 -3 -85
-19 -97 -10 -7 -24 -29 -32 -47 -16 -38 -19 -114 -4 -114 6 0 10 6 10 13 0 31
23 89 46 117 24 27 26 39 28 121 1 77 4 93 20 105 31 22 49 19 36 -7z m1344
-213 c51 -21 89 -121 46 -121 -8 0 -16 9 -18 20 -8 57 -13 65 -35 65 -30 0
-62 24 -53 38 9 15 19 15 60 -2z"/>
<path d="M3550 2672 c0 -47 -53 -115 -143 -186 -112 -87 -134 -131 -127 -256
1 -30 4 -26 15 26 18 84 37 116 92 161 27 21 78 68 115 104 68 68 88 111 73
158 -9 30 -25 26 -25 -7z"/>
<path d="M3025 2658 c21 -95 138 -388 150 -376 10 10 -138 408 -152 408 -3 0
-1 -15 2 -32z"/>
<path d="M3680 2492 c-32 -10 -64 -50 -99 -127 -39 -83 -78 -126 -138 -151
-105 -44 -103 -43 -103 -70 l0 -27 21 27 c11 14 27 26 34 26 26 0 109 32 139
53 18 13 45 54 73 114 24 51 56 107 70 123 27 33 28 40 3 32z"/>
<path d="M4425 1878 c-47 -17 -127 -71 -240 -163 -99 -80 -218 -151 -267 -158
-18 -3 -24 -14 -34 -64 -14 -68 -50 -144 -91 -193 -38 -46 -129 -103 -199
-125 -57 -18 -57 -18 -75 4 -20 25 -45 27 -57 5 -20 -37 -155 33 -208 107 -20
27 -38 49 -40 49 -2 0 7 -22 20 -49 33 -63 93 -114 161 -136 30 -9 55 -21 55
-26 0 -5 -27 -9 -59 -9 -70 0 -91 -15 -91 -65 0 -24 6 -38 19 -45 11 -5 83
-10 160 -10 128 0 143 2 161 20 21 21 27 55 11 64 -5 3 -11 -7 -14 -23 -7 -35
-42 -50 -64 -28 -19 19 -9 55 18 59 23 4 27 22 5 26 -22 5 -58 -36 -54 -61 1
-12 -1 -23 -5 -24 -4 -2 -52 -3 -106 -3 -106 0 -123 9 -101 51 9 16 23 19 98
20 48 1 79 3 70 6 -10 2 -18 11 -18 19 0 11 15 14 63 14 82 0 168 40 246 115
69 66 109 142 118 225 l6 60 35 0 c47 0 126 44 257 143 188 142 252 169 345
147 93 -22 141 -85 155 -202 9 -83 -10 -194 -61 -347 -25 -73 -43 -135 -40
-138 16 -16 98 200 120 317 40 209 1 350 -114 408 -49 24 -132 29 -185 10z"/>
<path d="M3563 1853 c-12 -13 -34 -23 -48 -23 -32 0 -86 -27 -103 -51 -10 -14
-26 -19 -59 -19 -47 0 -123 -18 -123 -30 0 -3 30 -3 68 1 40 4 75 3 86 -3 18
-10 35 2 36 24 0 11 69 44 106 52 36 8 68 38 62 58 -2 9 -10 6 -25 -9z"/>
<path d="M1746 769 c-2 -8 -7 -31 -11 -52 -14 -82 -131 -168 -210 -153 -42 8
-46 -6 -10 -30 16 -11 46 -17 80 -17 120 0 212 105 183 211 -12 44 -25 61 -32
41z"/>
<path d="M41 360 c-39 -55 -50 -106 -26 -128 16 -16 18 -15 38 12 12 16 30 38
40 50 21 24 22 27 -11 -60 -19 -49 -7 -74 34 -74 23 0 49 31 37 44 -16 16 10
4 29 -14 47 -44 138 -12 138 48 0 35 -22 66 -73 103 -62 45 -67 34 -9 -24 29
-29 52 -62 52 -73 0 -52 -66 -60 -109 -14 l-27 30 -13 -36 c-7 -19 -18 -33
-24 -31 -22 7 -18 46 9 92 25 44 26 47 10 63 -17 16 -20 14 -56 -28 -22 -24
-42 -41 -46 -37 -4 4 5 30 20 58 14 29 24 54 22 56 -2 3 -18 -14 -35 -37z"/>
</g>
</svg>
